<svg width="54" height="54" viewBox="0 0 54 54" fill="none" xmlns="http://www.w3.org/2000/svg">
<rect width="54" height="54" rx="27" fill="#FF6E40"/>
<path d="M36.7057 32.0147C36.7057 32.4402 36.586 32.8347 36.3943 33.1818L30.2652 26.3242L36.3278 21.02C36.5636 21.3942 36.7057 21.8339 36.7057 22.309V32.0147ZM26.9998 27.5694L35.4358 20.1881C35.0896 19.9986 34.6998 19.8824 34.2793 19.8824H19.7204C19.2994 19.8824 18.9094 19.9986 18.5646 20.1881L26.9998 27.5694ZM29.3517 27.1228L27.399 28.8325C27.2848 28.932 27.1426 28.9817 26.9998 28.9817C26.857 28.9817 26.7148 28.932 26.6006 28.8325L24.6474 27.1227L18.4408 34.068C18.8128 34.3014 19.2488 34.4412 19.7204 34.4412H34.2793C34.7507 34.4412 35.1869 34.3014 35.5588 34.068L29.3517 27.1228ZM17.6719 21.0199C17.4361 21.3942 17.2939 21.8338 17.2939 22.309V32.0147C17.2939 32.4403 17.4131 32.8348 17.6056 33.1819L23.7339 26.3231L17.6719 21.0199Z" fill="#251D1A"/>
</svg>
